<?xml version="1.0" encoding="utf-8"?>
<!-- Generator: Adobe Illustrator 24.2.1, SVG Export Plug-In . SVG Version: 6.00 Build 0)  -->
<svg version="1.1" id="Layer_1" xmlns="http://www.w3.org/2000/svg" xmlns:xlink="http://www.w3.org/1999/xlink" x="0px" y="0px"
	 viewBox="0 0 95 95" style="enable-background:new 0 0 95 95;" xml:space="preserve">
<style type="text/css">
	.st0{fill:#581a71;}
</style>
<g>
	<path class="st0" d="M92.1,24c-6.9-10.3-14-6.5-20.2-3.2c-0.7,0.4-1.5,0.8-2.2,1.2c-0.7-0.4-1.5-0.8-2.2-1.2
		c-6.2-3.3-13.1-6.9-20,2.9c-6.8-9.8-13.8-6.1-20-2.9c-0.7,0.4-1.5,0.8-2.2,1.2c-0.7-0.4-1.5-0.8-2.2-1.2C16.8,17.5,9.8,13.7,2.9,24
		C-4,34.1,3.2,47.7,5.6,51.7c0.2,0.3,0.3,0.7,0.3,1c1.7,16.6,4.6,25,8.4,25c3.4,0,8.9-5,9.2-18.5c0,0,0,0,0-0.1c0-1.3,0.6-2.4,1.7-3
		c0.1-0.1,0.2-0.1,0.2,0c1.1,0.7,1.7,1.7,1.7,3l0,0c0,0,0,0,0,0.1c0.3,13.5,5.8,18.5,9.2,18.5c3.8,0,6.6-8.4,8.4-25
		c0-0.4,0.2-0.7,0.3-1c0.6-1,1.6-2.7,2.5-4.8c0.9,2.1,1.9,3.8,2.5,4.8c0.2,0.3,0.3,0.7,0.3,1c1.8,16.6,4.6,25,8.4,25
		c3.4,0,8.9-5,9.2-18.5c0,0,0,0,0-0.1c0-1.3,0.6-2.4,1.7-3c0.1-0.1,0.2-0.1,0.2,0c1.1,0.7,1.7,1.7,1.7,3l0,0c0,0,0,0,0,0.1
		c0.3,13.5,5.8,18.5,9.2,18.5c3.8,0,6.6-8.4,8.4-25c0-0.4,0.2-0.7,0.3-1C91.8,47.7,99,34.1,92.1,24z M42.5,50.2
		c-0.4,0.7-0.6,1.4-0.7,2.2c-1.6,15-4.2,22.2-5.5,22.4c-1.6,0-6-3.7-6.3-15.7c0-3.2-1.9-4.8-3.1-5.5c-1-0.6-2.2-0.6-3.2,0
		c-1.1,0.7-3,2.3-3.1,5.5c-0.3,12-4.7,15.7-6.3,15.7c-1.3-0.3-3.9-7.5-5.5-22.4c-0.1-0.8-0.3-1.6-0.7-2.2
		c-1.5-2.5-8.8-15.7-2.8-24.6c2.7-4,5.2-5.4,7.9-5.4c2.7,0,5.5,1.5,8.6,3.1l0.2,0.1c-1.3,0.4-2.5,0.7-3.8,0.7
		c-0.8,0-1.4,0.6-1.4,1.4c0,0.8,0.6,1.4,1.4,1.4c2.7,0,5.3-1,7.8-2.2c0,0,0,0,0,0c1-0.5,2-1,2.9-1.5c6.2-3.3,11-5.8,16.5,2.3
		c0.2,0.3,0.4,0.6,0.5,0.9c-1.7,3.9-1.8,8.1-1.1,12H33.9V37c0-3.2-2.6-5.8-5.8-5.8h-5.8c-3.2,0-5.8,2.6-5.8,5.8v1.4h-5.1
		c-0.8,0-1.4,0.6-1.4,1.4c0,0.8,0.6,1.4,1.4,1.4h5.1v1.4c0,3.2,2.6,5.8,5.8,5.8h5.8c3.2,0,5.8-2.6,5.8-5.8v-1.4h11.6
		c0.1,0.5,0.3,1,0.5,1.5C44.7,46.4,43.2,49.1,42.5,50.2z M19.5,37c0-1.6,1.3-2.9,2.9-2.9h5.8c1.6,0,2.9,1.3,2.9,2.9v5.8
		c0,1.6-1.3,2.9-2.9,2.9h-5.8c-1.6,0-2.9-1.3-2.9-2.9V37z M86.9,50.2c-0.4,0.7-0.6,1.4-0.7,2.2c-1.6,15-4.2,22.2-5.5,22.4
		c-1.6,0-6.1-3.7-6.3-15.7c0-3.2-1.9-4.8-3-5.5c-1-0.6-2.2-0.6-3.2,0c-1.1,0.7-3,2.3-3.1,5.5c-0.3,12-4.7,15.7-6.3,15.7
		c-1.3-0.3-3.9-7.5-5.5-22.4c-0.1-0.8-0.3-1.6-0.7-2.2c-0.7-1.2-2.6-4.6-3.9-8.8h12.5v1.4c0,3.2,2.6,5.8,5.8,5.8h5.8
		c3.2,0,5.8-2.6,5.8-5.8v-1.5h5.5c0.8,0,1.4-0.6,1.4-1.4c0-0.8-0.6-1.4-1.4-1.4h-5.5V37c0-3.2-2.6-5.8-5.8-5.8h-5.8
		c-3.2,0-5.8,2.6-5.8,5.8v1.4H47.8c-0.9-4.3-0.8-9,1.8-12.9c2.7-4,5.3-5.4,7.9-5.4c2.7,0,5.5,1.5,8.6,3.1c0.1,0,0.1,0.1,0.2,0.1
		c-1.3,0.4-2.5,0.7-3.8,0.7c-0.8,0-1.4,0.6-1.4,1.4c0,0.8,0.6,1.4,1.4,1.4c3.8,0,7.4-1.9,10.8-3.7c6.2-3.3,11-5.8,16.5,2.3
		C95.8,34.5,88.5,47.6,86.9,50.2z M75.4,42.8c0,1.6-1.3,2.9-2.9,2.9h-5.8c-1.6,0-2.9-1.3-2.9-2.9V37c0-1.6,1.3-2.9,2.9-2.9h5.8
		c1.6,0,2.9,1.3,2.9,2.9V42.8z"/>
</g>
</svg>
